# xmcd
#
# Track frame offsets: 
#        150
#        17962
#        43487
#        58500
#        84075
#        102475
#        136437
#        156862
#        182235
#        203410
#        224010
#
# Disc length: 3192 seconds
#
# Revision: 2
# Processed by: cddbd v1.5.2PL0 Copyright (c) Steve Scherf et al.
# Submitted via: ExactAudioCopy v1.0b3
#
DISCID=9e0c760b
DTITLE=宮野寛子 - Precious Moments
DYEAR=2008
DGENRE=Jazz
TTITLE0=A Song For Yuki
TTITLE1=Feel Like Alan
TTITLE2=Precious Moments
TTITLE3=An Impression Of Brazil
TTITLE4=Afternoon Scene
TTITLE5=Long Street
TTITLE6=Moonlight
TTITLE7=Restart
TTITLE8=Children's Waltz
TTITLE9=Winds Of My Heart
TTITLE10=Luiza
EXTD=YEAR: 2008
EXTT0=
EXTT1=
EXTT2=
EXTT3=
EXTT4=
EXTT5=
EXTT6=
EXTT7=
EXTT8=
EXTT9=
EXTT10=
PLAYORDER=
